<svg enable-background="new 0 0 75 75" height="75" viewBox="0 0 75 75" width="75" xmlns="http://www.w3.org/2000/svg"><path d="m21.939 56.385h31.138l3.182 12.355h-37.507z" fill="#68b2e0"/><path d="m27.488 56.385h20.037l2.048 12.355h-24.135z" fill="#379acc"/><path d="m21.939 56.627v-.242h31.138v.242c7.254-4.971 12.017-13.307 12.017-22.773 0-15.239-12.344-27.594-27.594-27.594-15.234 0-27.594 12.355-27.594 27.594 0 9.466 4.768 17.802 12.033 22.773z" fill="#fff"/><path d="m24.358 56.627v-.205h26.298v.205c6.125-4.197 10.148-11.238 10.148-19.232 0-12.869-10.426-23.305-23.305-23.305-12.865 0-23.305 10.436-23.305 23.305.001 7.994 4.029 15.035 10.164 19.232z" fill="#f0f6fc"/><path d="m26.593 56.627v-.17h21.826v.17c5.084-3.484 8.423-9.326 8.423-15.963 0-10.68-8.653-19.342-19.342-19.342-10.678 0-19.342 8.662-19.342 19.342 0 6.637 3.342 12.479 8.435 15.963z" fill="#d9f1ff"/><path d="m28.909 56.627v-.133h17.191v.133c4.004-2.744 6.633-7.346 6.633-12.57 0-8.412-6.814-15.234-15.232-15.234-8.409 0-15.233 6.822-15.233 15.234-.001 5.224 2.63 9.826 6.641 12.57z" fill="#97d7ff"/><path d="m37.499 28.822c-8.409 0-15.232 6.822-15.232 15.234 0 5.225 2.632 9.826 6.643 12.57v-.133h8.59v-27.671z" fill="#aedcff"/><path d="m56.279 69.49c-.007 0-.013 0-.02 0h-37.507c-.232 0-.451-.107-.593-.291-.142-.183-.191-.422-.133-.646l3.188-12.355c.085-.331.384-.562.726-.562h31.138c.342 0 .641.231.726.562l3.141 12.196c.054.104.085.222.085.347-.001.413-.337.749-.751.749zm-36.559-1.5h35.571l-2.795-10.855h-29.975z" fill="#093260"/><path d="m53.077 57.377c-.12 0-.24-.028-.35-.087-.077-.04-.145-.093-.202-.155h-30.034c-.057.062-.125.115-.202.155-.246.132-.544.112-.773-.044-7.739-5.295-12.36-14.04-12.36-23.393 0-15.628 12.715-28.343 28.344-28.343s28.344 12.715 28.344 28.344c0 9.352-4.614 18.096-12.343 23.393-.127.086-.275.13-.424.13zm-15.577-50.367c-14.802 0-26.844 12.042-26.844 26.844 0 8.645 4.168 16.741 11.184 21.788.032-.005.065-.007.099-.007h31.138c.033 0 .066.002.099.007 7.005-5.048 11.168-13.145 11.168-21.788 0-14.802-12.042-26.844-26.844-26.844z" fill="#093260"/><path d="m20.68 25.783h-.758c-.267 0-.514-.142-.648-.373l-.382-.656c-.135-.233-.135-.521 0-.754l.382-.656c.134-.231.381-.373.648-.373h.758c.27 0 .518.145.651.379l.374.656c.131.229.131.513 0 .742l-.374.656c-.133.235-.382.379-.651.379z" fill="#d9ebfc"/><path d="m60.898 34.98h-.758c-.268 0-.515-.143-.649-.374l-.38-.656c-.135-.232-.135-.52 0-.752l.38-.656c.134-.231.381-.374.649-.374h.758c.269 0 .518.145.651.378l.375.656c.131.23.131.514 0 .744l-.375.656c-.133.234-.382.378-.651.378z" fill="#d9ebfc"/><path d="m16.155 35.176c-.13 0-.259-.033-.375-.101l-.655-.379c-.232-.134-.375-.382-.375-.649v-.756c0-.268.143-.516.375-.649l.655-.379c.232-.135.519-.135.751 0l.655.379c.232.134.375.382.375.649v.756c0 .268-.143.516-.375.649l-.655.379c-.116.068-.246.101-.376.101z" fill="#d9ebfc"/><path d="m58.078 28.553c-.129 0-.258-.033-.374-.1l-.656-.377c-.233-.134-.376-.382-.376-.65v-.758c0-.268.143-.516.375-.649l.656-.379c.232-.135.518-.135.75 0l.656.379c.232.134.375.382.375.649v.758c0 .269-.144.517-.376.65l-.656.377c-.116.067-.245.1-.374.1z" fill="#d9ebfc"/><path d="m25.141 15.281c-1.29 0-1.29 2 0 2s1.289-2 0-2z" fill="#d9ebfc"/><path d="m43.625 10.791c-1.29 0-1.29 2 0 2s1.29-2 0-2z" fill="#d9ebfc"/><path d="m53.208 19.458c-1.29 0-1.29 2 0 2s1.29-2 0-2z" fill="#d9ebfc"/><path d="m34.792 10.75c-1.29 0-1.29 2 0 2s1.289-2 0-2z" fill="#d9ebfc"/><path d="m21 17.453c-1.29 0-1.29 2 0 2s1.29-2 0-2z" fill="#d9ebfc"/><path d="m52.208 22.791c-1.29 0-1.29 2 0 2s1.29-2 0-2z" fill="#d9ebfc"/><path d="m45 16.333c-1.29 0-1.29 2 0 2s1.29-2 0-2z" fill="#d9ebfc"/><path d="m49.75 13.916c-1.29 0-1.29 2 0 2s1.29-2 0-2z" fill="#d9ebfc"/><path d="m31.375 14.583c-1.29 0-1.29 2 0 2s1.29-2 0-2z" fill="#d9ebfc"/><path d="m38.875 13.833c-1.29 0-1.29 2 0 2s1.29-2 0-2z" fill="#d9ebfc"/><path d="m26.683 66.957c-.414 0-.75-.336-.75-.75 0-2.569-2.09-4.66-4.66-4.66-.414 0-.75-.336-.75-.75s.336-.75.75-.75c3.396 0 6.16 2.764 6.16 6.16 0 .414-.336.75-.75.75z" fill="#093260"/><path d="m26.683 66.957c-.414 0-.75-.336-.75-.75 0-3.396 2.763-6.16 6.159-6.16.414 0 .75.336.75.75s-.336.75-.75.75c-2.569 0-4.659 2.091-4.659 4.66 0 .414-.336.75-.75.75z" fill="#093260"/><path d="m26.683 66.957c-.72 0-1.306-.586-1.306-1.307 0-.72.586-1.305 1.306-1.305.719 0 1.304.585 1.304 1.305-.001.721-.586 1.307-1.304 1.307zm0-1.5c-.106 0-.196.089-.196.193 0 .214.391.217.391 0-.001-.104-.09-.193-.195-.193z" fill="#093260"/><path d="m37.501 66.957c-.414 0-.75-.336-.75-.75 0-2.569-2.09-4.66-4.659-4.66-.414 0-.75-.336-.75-.75s.336-.75.75-.75c3.396 0 6.159 2.764 6.159 6.16 0 .414-.336.75-.75.75z" fill="#093260"/><path d="m37.501 66.957c-.414 0-.75-.336-.75-.75 0-3.396 2.762-6.16 6.157-6.16.414 0 .75.336.75.75s-.336.75-.75.75c-2.568 0-4.657 2.091-4.657 4.66 0 .414-.336.75-.75.75z" fill="#093260"/><path d="m37.501 66.957c-.721 0-1.308-.586-1.308-1.307 0-.72.586-1.305 1.308-1.305.72 0 1.306.585 1.306 1.305 0 .721-.586 1.307-1.306 1.307zm0-1.5c-.107 0-.194.087-.194.193 0 .214.387.216.387 0-.001-.106-.087-.193-.193-.193z" fill="#093260"/><path d="m48.317 66.957c-.414 0-.75-.336-.75-.75 0-2.569-2.09-4.66-4.659-4.66-.414 0-.75-.336-.75-.75s.336-.75.75-.75c3.396 0 6.159 2.764 6.159 6.16 0 .414-.336.75-.75.75z" fill="#093260"/><path d="m48.317 66.957c-.414 0-.75-.336-.75-.75 0-3.396 2.764-6.16 6.16-6.16.414 0 .75.336.75.75s-.336.75-.75.75c-2.57 0-4.66 2.091-4.66 4.66 0 .414-.336.75-.75.75z" fill="#093260"/><path d="m48.317 66.957c-.719 0-1.304-.586-1.304-1.307 0-.72.585-1.305 1.304-1.305.72 0 1.306.585 1.306 1.305 0 .721-.586 1.307-1.306 1.307zm0-1.5c-.105 0-.194.089-.194.193 0 .217.391.214.391 0 0-.104-.09-.193-.197-.193z" fill="#093260"/><path d="m43.04 36.889c-1.543.973-3.447 1.572-5.541 1.572-2.092 0-3.996-.6-5.542-1.572-4.107 1.682-6.939 5.166-6.939 9.199 0 5.68 5.591 10.283 12.481 10.283 6.893 0 12.483-4.604 12.483-10.283 0-4.033-2.832-7.518-6.942-9.199z" fill="#f0f6fc"/><path d="m44.581 36.889c-1.2.973-2.682 1.572-4.312 1.572-1.628 0-3.108-.6-4.312-1.572-3.195 1.682-5.398 5.166-5.398 9.199 0 5.68 4.35 10.283 9.71 10.283 5.363 0 9.713-4.604 9.713-10.283 0-4.033-2.204-7.518-5.401-9.199z" fill="#d9f1ff"/><path d="m54.655 32.127-7.409 7.404" fill="#f0f6fc"/><path d="m50.949 31.629v4.197" fill="#f0f6fc"/><path d="m52.13 34.758h2.687" fill="#f0f6fc"/><path d="m20.345 32.127 7.402 7.404" fill="#f0f6fc"/><path d="m24.048 31.629v4.197" fill="#f0f6fc"/><path d="m22.867 34.758h-2.684" fill="#f0f6fc"/><path d="m37.979 42.783c0 .27-.214.48-.479.48-.264 0-.48-.211-.48-.48 0-.266.217-.479.48-.479.265.001.479.214.479.479z" fill="#f0f6fc"/><path d="m37.979 47.105c0 .268-.214.48-.479.48-.264 0-.48-.213-.48-.48 0-.26.217-.479.48-.479.265.001.479.22.479.479z" fill="#f0f6fc"/><circle cx="37.499" cy="51.43" fill="#f0f6fc" r=".48"/><path d="m33.003 17.785h8.99v6.445h-8.99z" fill="#379acc"/><path d="m35.382 17.785h4.232v6.445h-4.232z" fill="#138cbc"/><path d="m41.662 24.23h-8.324c-2.956 1.248-5.002 3.758-5.002 6.686 0 4.17 4.104 7.545 9.163 7.545 5.064 0 9.165-3.375 9.165-7.545 0-2.928-2.046-5.437-5.002-6.686z" fill="#f0f6fc"/><path d="m31.538 30.916c0 3.719 3.268 6.799 7.562 7.422 4.299-.623 7.563-3.703 7.563-7.422 0-2.928-2.046-5.438-5.002-6.686h-5.121c-2.957 1.249-5.002 3.758-5.002 6.686z" fill="#d9f1ff"/><path d="m28.043 24.23h18.914" fill="#f0f6fc"/><path d="m34.298 29.787c0 .09-.075.164-.168.164-.088 0-.16-.074-.16-.164 0-.094.072-.164.16-.164.093 0 .168.07.168.164z" fill="#f0f6fc"/><path d="m41.034 29.787c0 .09-.076.164-.168.164s-.164-.074-.164-.164c0-.094.072-.164.164-.164s.168.07.168.164z" fill="#f0f6fc"/><path d="m33.003 32.127h3.684" fill="#f0f6fc"/><path d="m39.1 34.428c-.881.883-2.315.883-3.202 0" fill="#f0f6fc"/><g fill="#093260"><path d="m37.499 57.121c-7.296 0-13.231-4.949-13.231-11.033 0-4.232 2.837-8.023 7.405-9.894.224-.091.479-.069.684.06 3.033 1.908 7.262 1.904 10.284 0 .205-.129.459-.15.684-.06 4.569 1.87 7.408 5.661 7.408 9.894-.001 6.084-5.937 11.033-13.234 11.033zm-5.601-19.392c-3.792 1.679-6.13 4.853-6.13 8.359 0 5.257 5.263 9.533 11.731 9.533 6.47 0 11.733-4.276 11.733-9.533 0-3.507-2.34-6.682-6.133-8.359-3.348 1.942-7.845 1.942-11.201 0z"/><path d="m47.246 40.281c-.192 0-.384-.073-.53-.22-.293-.293-.293-.768 0-1.061l7.409-7.404c.293-.293.769-.293 1.061 0 .293.293.293.768 0 1.061l-7.409 7.404c-.147.147-.339.22-.531.22z"/><path d="m50.949 36.576c-.414 0-.75-.336-.75-.75v-4.197c0-.414.336-.75.75-.75s.75.336.75.75v4.197c0 .414-.336.75-.75.75z"/><path d="m54.817 35.508h-2.687c-.414 0-.75-.336-.75-.75s.336-.75.75-.75h2.688c.414 0 .75.336.75.75s-.337.75-.751.75z"/><path d="m27.747 40.281c-.192 0-.384-.073-.53-.22l-7.402-7.404c-.293-.293-.293-.768 0-1.061s.768-.293 1.061 0l7.402 7.404c.293.293.293.768 0 1.061-.147.147-.339.22-.531.22z"/><path d="m24.048 36.576c-.414 0-.75-.336-.75-.75v-4.197c0-.414.336-.75.75-.75s.75.336.75.75v4.197c0 .414-.336.75-.75.75z"/><path d="m22.867 35.508h-2.685c-.414 0-.75-.336-.75-.75s.336-.75.75-.75h2.685c.414 0 .75.336.75.75s-.336.75-.75.75z"/><circle cx="37.499" cy="42.784" r="1.229"/><circle cx="37.499" cy="47.106" r="1.229"/><circle cx="37.499" cy="51.432" r="1.229"/><path d="m41.993 24.98h-8.99c-.414 0-.75-.336-.75-.75v-6.445c0-.414.336-.75.75-.75h8.99c.414 0 .75.336.75.75v6.445c0 .415-.336.75-.75.75zm-8.24-1.5h7.49v-4.945h-7.49z"/><path d="m37.499 39.211c-5.466 0-9.913-3.721-9.913-8.295 0-3.128 2.092-5.954 5.46-7.377.092-.038.191-.059.292-.059h8.324c.1 0 .199.021.292.059 3.368 1.423 5.46 4.249 5.46 7.377 0 4.574-4.448 8.295-9.915 8.295zm-4.006-14.231c-2.723 1.199-4.407 3.462-4.407 5.936 0 3.747 3.774 6.795 8.413 6.795 4.64 0 8.415-3.048 8.415-6.795 0-2.474-1.684-4.736-4.407-5.936z"/><path d="m46.957 24.98h-18.914c-.414 0-.75-.336-.75-.75s.336-.75.75-.75h18.914c.414 0 .75.336.75.75s-.336.75-.75.75z"/><path d="m34.125 28.781c-1.29 0-1.29 2 0 2s1.29-2 0-2z"/><path d="m40.828 28.781c-1.29 0-1.29 2 0 2s1.29-2 0-2z"/><path d="m36.687 32.877h-3.684c-.414 0-.75-.336-.75-.75s.336-.75.75-.75h3.684c.414 0 .75.336.75.75s-.336.75-.75.75z"/><path d="m37.5 35.839c-.771 0-1.543-.293-2.132-.88-.293-.292-.294-.767-.002-1.061.293-.295.767-.293 1.061-.002.592.588 1.553.591 2.142.002.292-.295.767-.294 1.061-.002.293.293.293.768.001 1.061-.587.588-1.358.882-2.131.882z"/></g></svg>